<svg xmlns="http://www.w3.org/2000/svg" viewBox="0 0 34 34">
  <rect x="1" y="1" width="32" height="32" rx="7" fill="#ffffff"/>
  <g transform="translate(5,3.4) scale(0.04)">
    <path fill="#1b2c63" d="M 0,129.6 L 0,259.1 L 59.5,259.1 L 119,259.1 L 119.2,189.8 L 119.5,120.6 L 250,120.6 C 373.7,120.6 380.9,120.7 388.5,122.5 C 398.2,124.7 404.2,126.6 409.5,129.1 C 423.3,135.5 427,137.3 427.5,138.1 C 427.8,138.6 430.8,140.8 434.3,143.1 C 439.8,146.9 457.8,164.5 458,166.3 C 458,166.7 460.4,170.8 463.3,175.5 C 466.3,180.2 469.5,186.2 470.4,188.8 C 471.4,191.4 473.2,196.3 474.5,199.6 C 475.8,202.9 477.2,207.6 477.5,210.1 C 478.8,218.3 479.2,252.3 478,253.5 C 477.5,254 477,256.2 477,258.3 C 477,260.4 476.6,262.9 476.1,263.9 C 475.6,264.8 473.3,270.5 471,276.6 C 460.7,303.1 438.5,326.2 412.8,337.2 C 407.8,339.3 403.2,341.1 402.6,341.1 C 402,341.1 379.9,319.5 353.5,293.1 L 305.5,245.1 L 279.9,245.1 C 265.8,245.1 254.1,245.4 253.7,245.7 C 253.4,246.1 253.9,247.5 255,249 C 256.7,251.4 268.2,271.2 273.8,281.1 C 275.2,283.6 277.1,286.8 278.1,288.3 C 279.2,289.7 280,291.4 280,292 C 280,292.6 280.4,293.1 280.9,293.1 C 281.4,293.1 282,293.9 282.4,294.8 C 282.7,295.8 283.9,298.1 285,299.8 C 287.5,303.9 287.9,304.5 301.7,328.1 L 312.8,347.1 L 156.4,347.1 L 0,347.1 L 0,514.7 C 0,673.9 0.1,682.3 1.8,681.6 C 2.7,681.2 9.8,678.5 17.5,675.6 C 30.6,670.7 42.9,665.8 51,662.3 C 52.9,661.5 70,654.9 89,647.6 L 123.5,634.4 L 123.8,550.7 L 124,467.1 L 218.5,467.1 C 272,467.1 313,467.5 313,468 C 313,468.5 312.3,469.4 311.5,470.1 C 310.7,470.8 310,471.7 310,472.1 C 310,472.8 288.3,509.9 282.6,519 C 281.1,521.2 280,523.3 280,523.6 C 280,523.9 278.4,526.5 276.5,529.4 C 274.6,532.2 273,535.1 273,535.8 C 273,536.4 272.7,537.1 272.2,537.3 C 271.6,537.6 264,549.7 264,550.5 C 264,550.7 261.8,554.6 259,559.2 C 256.3,563.8 254,567.9 254,568.3 C 254,568.8 265.8,569.1 280.2,569.1 L 306.4,569.1 L 359.6,515.9 L 412.9,462.6 L 428.2,458.6 C 445.2,454.1 468.2,445 477.8,439 C 481.3,436.9 484.3,435.1 484.5,435.1 C 484.8,435.1 487.4,433.5 490.4,431.6 C 493.4,429.7 496.3,428.1 496.7,428.1 C 497.2,428.1 499.2,426.6 501.2,424.8 C 503.2,423.1 508.9,418.5 513.8,414.7 C 518.8,410.9 527.8,402.8 533.7,396.6 C 545.2,384.6 547.1,382.4 555,371.5 C 557.8,367.7 560.8,363.5 561.8,362.2 C 564.8,358.1 578.2,332.9 580.7,326.6 C 582,323.3 583.5,319.7 583.9,318.6 C 584.4,317.5 585.3,315 586,313.1 C 587.1,309.8 588,307.6 590.1,302.6 C 592.4,297.3 598,267.1 599.1,254.6 C 600.8,234.6 599.7,211.2 596,191.4 C 594.5,182.7 592.4,173.6 591.5,171.1 C 590.6,168.6 589.6,165.7 589.4,164.6 C 589.1,163.5 588.5,161.7 588,160.6 C 587.6,159.5 586.7,156.6 586,154.1 C 583.6,145.9 569.5,117.8 561.8,106.1 C 547.4,84.3 534.7,70.3 511,50.3 C 504.1,44.5 480.3,29.7 471,25.4 C 465.8,23 460.8,20.6 460,20.1 C 457.4,18.4 451.8,16.1 450.4,16.1 C 449.7,16.1 448.8,15.6 448.5,15.1 C 448.2,14.5 446.6,14.1 445.1,14.1 C 443.6,14.1 442,13.7 441.5,13.2 C 439.4,11.3 419.8,6.2 404.5,3.5 L 388.5,0.6 L 194.3,0.3 L 0,0 L 0,129.6"/>
  </g>
</svg>
